<svg width="30" height="30" viewBox="0 0 30 30" fill="none" xmlns="http://www.w3.org/2000/svg">
<g clip-path="url(#clip0_2_9)">
<g clip-path="url(#clip1_2_9)">
<mask id="mask0_2_9" style="mask-type:luminance" maskUnits="userSpaceOnUse" x="0" y="0" width="30" height="30">
<path d="M30 0H0V30H30V0Z" fill="white"/>
</mask>
<g mask="url(#mask0_2_9)">
<path d="M20.1786 8.42419C14.9277 3.28236 5.99828 6.08074 4.67727 13.3419C2.81113 13.6113 1.21217 14.8328 0.457481 16.569C0.456544 16.571 0.455606 16.5731 0.454729 16.5753C-1.10896 20.1848 1.55535 24.206 5.46507 24.206H22.0041C26.4131 24.206 30 20.6192 30 16.2102C30 11.0884 25.2137 7.2471 20.1786 8.42419ZM22.0041 22.3313H5.46514C1.40775 22.3313 0.511972 16.5737 4.3686 15.332C5.23305 15.0595 6.88872 14.9014 8.72682 16.6147C9.10557 16.9677 9.69863 16.9467 10.0516 16.5682C10.4046 16.1894 10.3837 15.5963 10.0051 15.2434C8.95448 14.2641 7.77435 13.642 6.57829 13.4004C7.86934 7.59514 15.2135 5.6748 19.1904 10.1013C19.4358 10.3744 19.8182 10.4793 20.1685 10.3691C24.1102 9.13174 28.1252 12.0902 28.1252 16.2103C28.1253 19.5854 25.3793 22.3313 22.0041 22.3313Z" fill="url(#paint0_linear_2_9)"/>
<path d="M21.3789 14.2921C21.4109 14.2921 21.4469 14.3081 21.4869 14.3401C21.5349 14.3721 21.5749 14.4201 21.6069 14.4841C21.6469 14.5401 21.6669 14.6001 21.6669 14.6641C21.6669 14.8321 21.6309 15.0441 21.5589 15.3001C20.9829 17.2281 20.6949 18.5961 20.6949 19.4041C20.6949 20.0281 20.8589 20.3401 21.1869 20.3401C21.4749 20.3401 21.8469 20.1401 22.3029 19.7401C22.7589 19.3401 23.2029 18.8401 23.6349 18.2401C24.0669 17.6321 24.4349 16.9281 24.7389 16.1281C25.0509 15.3281 25.2069 14.5721 25.2069 13.8601C25.2069 13.1081 24.9989 12.6561 24.5829 12.5041C24.4629 12.4641 24.4029 12.4121 24.4029 12.3481C24.4029 12.3321 24.4109 12.3161 24.4269 12.3001C24.4429 12.2761 24.4629 12.2601 24.4869 12.2521C24.5189 12.2441 24.5549 12.2401 24.5949 12.2401C24.9229 12.2401 25.1989 12.3761 25.4229 12.6481C25.6549 12.9121 25.7709 13.2961 25.7709 13.8001C25.7709 14.5121 25.5869 15.3001 25.2189 16.1641C24.8509 17.0201 24.4109 17.7881 23.8989 18.4681C23.3869 19.1401 22.8509 19.7041 22.2909 20.1601C21.7389 20.6241 21.2789 20.8561 20.9109 20.8561C20.4149 20.8561 20.1669 20.4081 20.1669 19.5121C20.1669 19.2081 20.1949 18.8481 20.2509 18.4321C20.3149 18.0081 20.3789 17.6401 20.4429 17.3281C20.5069 17.0081 20.5869 16.6401 20.6829 16.2241C20.7789 15.8001 20.8389 15.5241 20.8629 15.3961C20.2709 15.8681 19.6469 16.5121 18.9909 17.3281C18.3349 18.1441 17.8389 18.8121 17.5029 19.3321C17.1749 19.8521 16.8829 20.3361 16.6269 20.7841V20.7721C16.4429 21.1161 16.2629 21.2881 16.0869 21.2881C16.0069 21.2881 15.9429 21.2521 15.8949 21.1801C15.8549 21.1161 15.8349 21.0241 15.8349 20.9041C15.8349 20.8001 15.8509 20.6921 15.8829 20.5801C15.9069 20.5001 16.0949 19.9321 16.4469 18.8761C16.7989 17.8201 17.0949 16.8041 17.3349 15.8281C17.5829 14.8521 17.7069 14.0561 17.7069 13.4401C17.7069 12.9841 17.6029 12.6601 17.3949 12.4681C17.1949 12.2681 16.8549 12.1681 16.3749 12.1681C16.0709 12.1681 15.7109 12.2161 15.2949 12.3121C14.8789 12.4081 14.4389 12.5601 13.9749 12.7681C13.5189 12.9761 13.0949 13.2201 12.7029 13.5001C12.3189 13.7721 11.9989 14.1121 11.7429 14.5201C11.4869 14.9201 11.3589 15.3441 11.3589 15.7921C11.3589 16.2721 11.5509 16.6761 11.9349 17.0041C12.3269 17.3321 12.7709 17.4961 13.2669 17.4961C13.7069 17.4961 14.0229 17.4281 14.2149 17.2921C14.2309 17.2761 14.2469 17.2641 14.2629 17.2561C14.2869 17.2481 14.3069 17.2441 14.3229 17.2441C14.3389 17.2361 14.3549 17.2321 14.3709 17.2321C14.4189 17.2321 14.4429 17.2521 14.4429 17.2921C14.4429 17.3481 14.3869 17.4081 14.2749 17.4721C14.0429 17.6081 13.6829 17.6761 13.1949 17.6761C13.1229 17.6761 13.0389 17.6761 12.9429 17.6761C12.4069 17.6601 11.9269 17.4721 11.5029 17.1121C11.0869 16.7521 10.8789 16.3001 10.8789 15.7561C10.8789 15.2201 11.0629 14.7041 11.4309 14.2081C11.8069 13.7041 12.2709 13.2921 12.8229 12.9721C13.3829 12.6441 13.9749 12.3841 14.5989 12.1921C15.2309 11.9921 15.8149 11.8921 16.3509 11.8921C17.7189 11.8921 18.4029 12.4961 18.4029 13.7041C18.4029 13.9521 18.3789 14.2121 18.3309 14.4841C18.2909 14.7561 18.2109 15.0801 18.0909 15.4561C17.9789 15.8241 17.8949 16.0921 17.8389 16.2601C17.7829 16.4201 17.6629 16.7401 17.4789 17.2201C17.3029 17.7001 17.2029 17.9681 17.1789 18.0241C16.9149 18.7601 16.7589 19.3321 16.7109 19.7401C18.3989 17.6121 19.6309 16.1121 20.4069 15.2401C20.4709 15.1681 20.5509 15.0761 20.6469 14.9641C20.8869 14.6921 21.0509 14.5121 21.1389 14.4241C21.2349 14.3361 21.3149 14.2921 21.3789 14.2921Z" fill="url(#paint1_linear_2_9)"/>
</g>
</g>
</g>
<defs>
<linearGradient id="paint0_linear_2_9" x1="-2.58746" y1="16.5376" x2="31.3313" y2="16.0876" gradientUnits="userSpaceOnUse">
<stop stop-color="#FD5F0E"/>
<stop offset="1" stop-color="#EF126D"/>
</linearGradient>
<linearGradient id="paint1_linear_2_9" x1="-2.38184" y1="14.4751" x2="30.6369" y2="14.4751" gradientUnits="userSpaceOnUse">
<stop stop-color="#FD5F0E"/>
<stop offset="1" stop-color="#EF126D"/>
</linearGradient>
<clipPath id="clip0_2_9">
<rect width="30" height="30" fill="white"/>
</clipPath>
<clipPath id="clip1_2_9">
<rect width="30" height="30" fill="white"/>
</clipPath>
</defs>
</svg>
